HIERARCHY
ROOT Hips
{
  OFFSET 5.84602e-005 68.8428 3.50346
  CHANNELS 6 Xposition Yposition Zposition Zrotation Xrotation Yrotation
  JOINT Spine
  {
    OFFSET 0 8.597 -4.6522
    CHANNELS 3 Zrotation Xrotation Yrotation
    JOINT Spine1
    {
      OFFSET 0 7.8454 0.4098
      CHANNELS 3 Zrotation Xrotation Yrotation
      JOINT Spine2
      {
        OFFSET 0 9.7078 -2.1609
        CHANNELS 3 Zrotation Xrotation Yrotation
        JOINT Neck
        {
          OFFSET 0 21.8761 -0.4549
          CHANNELS 3 Zrotation Xrotation Yrotation
          JOINT Head
          {
            OFFSET 0 12.3537 3.3602
            CHANNELS 3 Zrotation Xrotation Yrotation
            End Site
            {
              OFFSET 0.0001 18.9506 0.5657
            }
          }
        }
        JOINT LeftShoulder
        {
          OFFSET 2.2086 21.1115 7.2329
          CHANNELS 3 Zrotation Xrotation Yrotation
          JOINT LeftArm
          {
            OFFSET 13.1193 3.0282 -4.8998
            CHANNELS 3 Zrotation Xrotation Yrotation
            JOINT LeftForeArm
            {
              OFFSET 27.4081 -0.0973053 -0.2375
              CHANNELS 3 Zrotation Xrotation Yrotation
              JOINT LeftHand
              {
                OFFSET 22.8641 0.0662994 -0.1369
                CHANNELS 3 Zrotation Xrotation Yrotation
                JOINT LeftHandIndex1
                {
                  OFFSET 8.8614 0.775009 2.4612
                  CHANNELS 3 Zrotation Xrotation Yrotation
                  JOINT LeftHandIndex2
                  {
                    OFFSET 3.3146 -0.808304 0.5841
                    CHANNELS 3 Zrotation Xrotation Yrotation
                    JOINT LeftHandIndex3
                    {
                      OFFSET 2.2628 -0.552002 0.3989
                      CHANNELS 3 Zrotation Xrotation Yrotation
                      End Site
                      {
                        OFFSET 1.6102 -0.4807 0.2612
                      }
                    }
                  }
                }
                JOINT LeftHandMiddle1
                {
                  OFFSET 8.9937 0.895004 0.2143
                  CHANNELS 3 Zrotation Xrotation Yrotation
                  JOINT LeftHandMiddle2
                  {
                    OFFSET 4.0984 0.0113983 -0.0242
                    CHANNELS 3 Zrotation Xrotation Yrotation
                    JOINT LeftHandMiddle3
                    {
                      OFFSET 2.2716 0.00689697 -0.0138001
                      CHANNELS 3 Zrotation Xrotation Yrotation
                      End Site
                      {
                        OFFSET 2.0404 -0.1441 0.0027
                      }
                    }
                  }
                }
                JOINT LeftHandRing1
                {
                  OFFSET 8.5234 0.597198 -2.0164
                  CHANNELS 3 Zrotation Xrotation Yrotation
                  JOINT LeftHandRing2
                  {
                    OFFSET 3.7188 -0.188293 -0.2328
                    CHANNELS 3 Zrotation Xrotation Yrotation
                    JOINT LeftHandRing3
                    {
                      OFFSET 2.1191 -0.106598 -0.1332
                      CHANNELS 3 Zrotation Xrotation Yrotation
                      End Site
                      {
                        OFFSET 1.8737 -0.2304 -0.0886
                      }
                    }
                  }
                }
                JOINT LeftHandPinky1
                {
                  OFFSET 7.9094 -0.601089 -3.4825
                  CHANNELS 3 Zrotation Xrotation Yrotation
                  JOINT LeftHandPinky2
                  {
                    OFFSET 2.2874 -0.477005 -0.6314
                    CHANNELS 3 Zrotation Xrotation Yrotation
                    JOINT LeftHandPinky3
                    {
                      OFFSET 1.6774 -0.349396 -0.4633
                      CHANNELS 3 Zrotation Xrotation Yrotation
                      End Site
                      {
                        OFFSET 1.4888 -0.4091 -0.3416
                      }
                    }
                  }
                }
                JOINT LeftHandThumb1
                {
                  OFFSET 1.833 -1.3875 1.3896
                  CHANNELS 3 Zrotation Xrotation Yrotation
                  JOINT LeftHandThumb2
                  {
                    OFFSET 3.4129 -1.121 2.5732
                    CHANNELS 3 Zrotation Xrotation Yrotation
                    JOINT LeftHandThumb3
                    {
                      OFFSET 2.2474 -0.804199 1.6192
                      CHANNELS 3 Zrotation Xrotation Yrotation
                      End Site
                      {
                        OFFSET 1.6527 -0.5689 1.1317
                      }
                    }
                  }
                }
              }
            }
          }
        }
        JOINT RightShoulder
        {
          OFFSET -2.2086 21.1115 7.2329
          CHANNELS 3 Zrotation Xrotation Yrotation
          JOINT RightArm
          {
            OFFSET -13.1216 3.0287 -4.9007
            CHANNELS 3 Zrotation Xrotation Yrotation
            JOINT RightForeArm
            {
              OFFSET -27.4081 -0.0973053 -0.2375
              CHANNELS 3 Zrotation Xrotation Yrotation
              JOINT RightHand
              {
                OFFSET -22.8641 0.0664063 -0.1369
                CHANNELS 3 Zrotation Xrotation Yrotation
                JOINT RightHandIndex1
                {
                  OFFSET -8.8614 0.774994 2.4612
                  CHANNELS 3 Zrotation Xrotation Yrotation
                  JOINT RightHandIndex2
                  {
                    OFFSET -3.3146 -0.808304 0.5841
                    CHANNELS 3 Zrotation Xrotation Yrotation
                    JOINT RightHandIndex3
                    {
                      OFFSET -2.2628 -0.552002 0.3989
                      CHANNELS 3 Zrotation Xrotation Yrotation
                      End Site
                      {
                        OFFSET -1.6102 -0.4807 0.2612
                      }
                    }
                  }
                }
                JOINT RightHandMiddle1
                {
                  OFFSET -8.9937 0.894989 0.2143
                  CHANNELS 3 Zrotation Xrotation Yrotation
                  JOINT RightHandMiddle2
                  {
                    OFFSET -4.0984 0.0113983 -0.0242
                    CHANNELS 3 Zrotation Xrotation Yrotation
                    JOINT RightHandMiddle3
                    {
                      OFFSET -2.2716 0.00691223 -0.0138001
                      CHANNELS 3 Zrotation Xrotation Yrotation
                      End Site
                      {
                        OFFSET -2.0404 -0.1441 0.0027
                      }
                    }
                  }
                }
                JOINT RightHandRing1
                {
                  OFFSET -8.5234 0.597198 -2.0164
                  CHANNELS 3 Zrotation Xrotation Yrotation
                  JOINT RightHandRing2
                  {
                    OFFSET -3.7188 -0.188309 -0.2328
                    CHANNELS 3 Zrotation Xrotation Yrotation
                    JOINT RightHandRing3
                    {
                      OFFSET -2.1191 -0.106598 -0.1332
                      CHANNELS 3 Zrotation Xrotation Yrotation
                      End Site
                      {
                        OFFSET -1.8737 -0.2304 -0.0886
                      }
                    }
                  }
                }
                JOINT RightHandPinky1
                {
                  OFFSET -7.9094 -0.601105 -3.4825
                  CHANNELS 3 Zrotation Xrotation Yrotation
                  JOINT RightHandPinky2
                  {
                    OFFSET -2.2874 -0.477005 -0.6314
                    CHANNELS 3 Zrotation Xrotation Yrotation
                    JOINT RightHandPinky3
                    {
                      OFFSET -1.6774 -0.349396 -0.4633
                      CHANNELS 3 Zrotation Xrotation Yrotation
                      End Site
                      {
                        OFFSET -1.4888 -0.4091 -0.3416
                      }
                    }
                  }
                }
                JOINT RightHandThumb1
                {
                  OFFSET -1.833 -1.38751 1.3896
                  CHANNELS 3 Zrotation Xrotation Yrotation
                  JOINT RightHandThumb2
                  {
                    OFFSET -3.41299 -1.12099 2.5732
                    CHANNELS 3 Zrotation Xrotation Yrotation
                    JOINT RightHandThumb3
                    {
                      OFFSET -2.24741 -0.804108 1.6192
                      CHANNELS 3 Zrotation Xrotation Yrotation
                      End Site
                      {
                        OFFSET -1.6527 -0.5689 1.1317
                      }
                    }
                  }
                }
              }
            }
          }
        }
      }
    }
  }
  JOINT RightUpLeg
  {
    OFFSET -9.1966 3.8861 -0.7581
    CHANNELS 3 Zrotation Xrotation Yrotation
    JOINT RightLeg
    {
      OFFSET -0.7359 -41.0265 0
      CHANNELS 3 Zrotation Xrotation Yrotation
      JOINT RightFoot
      {
        OFFSET 0 -40.2855 0
        CHANNELS 3 Zrotation Xrotation Yrotation
        JOINT RightToeBase
        {
          OFFSET 0 -5.6122 11.7359
          CHANNELS 3 Zrotation Xrotation Yrotation
          End Site
          {
            OFFSET 0 0 7.8731
          }
        }
      }
    }
  }
  JOINT LeftUpLeg
  {
    OFFSET 9.1965 3.8864 -0.7581
    CHANNELS 3 Zrotation Xrotation Yrotation
    JOINT LeftLeg
    {
      OFFSET 0.7359 -41.0268 0
      CHANNELS 3 Zrotation Xrotation Yrotation
      JOINT LeftFoot
      {
        OFFSET 0 -40.2855 0
        CHANNELS 3 Zrotation Xrotation Yrotation
        JOINT LeftToeBase
        {
          OFFSET 0 -5.6122 11.7359
          CHANNELS 3 Zrotation Xrotation Yrotation
          End Site
          {
            OFFSET 0 0 7.8731
          }
        }
      }
    }
  }
}
MOTION
Frames:	4
Frame Time:	0.0333333
5.84602e-005 68.8428 3.50346 0 0 -0 0 0 -0 0 0 -0 0 0 -0 0 0 -0 0 0 -0 0 0 -0 0 0 -0 0 0 -0 0 0 -0 0 0 -0 0 0 -0 0 0 -0 0 0 -0 -0.0146107 -8.87603e-005 -2.63497e-007 2.99804e-018 -2.42657e-020 -1.42182e-022 0 0 -0 -0.0187562 -0.001176 5.858e-005 5.06224e-018 3.88251e-019 1.21329e-020 0 0 -0 -0.012269 -0.00324817 0.000675346 -1.74678e-018 3.88251e-019 -0 0 0 -0 0 0 -0 0 0 -0 0 0 -0 0 0 -0 0 0 -0 0 0 -0 0 0 -0 0 0 -0 0 0 -0 0 0 -0 0.0149955 -9.10982e-005 2.64101e-007 -9.69331e-018 1.21329e-020 -4.7394e-023 0 0 -0 0.0189956 -0.00119102 -5.96516e-005 -5.41541e-019 0 2.42657e-020 0 0 -0 0.0122698 -0.00324857 -0.000673756 -2.00796e-019 0 -1.94126e-019 0 0 -0 0 0 -0 0 0 -0 3.39842 1.33031 -0.0637918 -5.65207e-008 0.834868 -0.000436188 -3.39935 -2.16518 -0.0642563 -8.89002e-024 -1.18485e-023 -1.48106e-024 -3.39844 1.35642 0.0640283 -3.18788e-007 0.782166 -0.000588827 3.39931 -2.13858 0.0634662 1.1399e-023 0 -0 
0.870323 34.5916 13.1518 0 32.9964 -0 0.359125 -0.0800589 -0.46589 0.71759 -0.163003 -0.931269 0.71759 -0.16301 -0.931269 -8.79687e-005 0.169633 0.000112321 -1.36706e-007 0.159115 -7.69764e-008 -21.7988 29.9858 -5.04588 -82.0649 -51.0609 -56.4018 -94.0926 -0.726174 -14.6476 157.125 34.6372 -129.138 -1.45045e-007 1.44865e-007 5.92474e-008 1.45045e-007 -1.44865e-007 -5.92474e-008 -1.45045e-007 1.44865e-007 5.92474e-008 -1.45045e-007 1.44865e-007 5.92474e-008 -0.0145933 -9.08066e-005 1.2926e-006 -1.45045e-007 1.44858e-007 5.9266e-008 -1.45045e-007 1.44865e-007 5.92474e-008 -0.0188155 -0.00118227 6.87833e-005 -1.45044e-007 1.44856e-007 5.92727e-008 -1.45045e-007 1.44865e-007 5.92474e-008 -0.0122475 -0.00324472 0.00067374 -1.45042e-007 1.4486e-007 5.9267e-008 -1.45045e-007 1.44865e-007 5.92474e-008 1.45045e-007 -1.44865e-007 -5.92474e-008 -1.45045e-007 1.44865e-007 5.92474e-008 20.9279 27.9741 5.25231 82.0501 -51.1696 56.4953 93.633 -0.845876 14.7813 -161.662 36.4282 136.701 1.45035e-007 1.44868e-007 -5.92589e-008 1.10348e-031 -7.95139e-015 7.95139e-016 1.45035e-007 1.44868e-007 -5.92589e-008 1.45035e-007 1.44868e-007 -5.92589e-008 0.0149616 -9.0039e-005 -9.34179e-007 1.45034e-007 1.4486e-007 -5.92779e-008 1.45035e-007 1.44868e-007 -5.92589e-008 0.0189445 -0.00118617 -5.62135e-005 1.45033e-007 1.44858e-007 -5.92843e-008 1.45035e-007 1.44868e-007 -5.92589e-008 0.0121906 -0.00322539 -0.000667827 1.45032e-007 1.44863e-007 -5.92784e-008 1.45035e-007 1.44868e-007 -5.92589e-008 1.10348e-031 -7.95139e-015 7.95139e-016 1.45035e-007 1.44868e-007 -5.92589e-008 -146.076 -63.2273 -141.372 -167.469 77.8689 165.339 1.95956 -8.97074 -13.5122 -1.76556e-031 -3.18055e-015 -3.18055e-015 148.254 -63.6344 144.994 168.48 76.9888 -166.282 -0.217496 -10.1926 14.7989 2.29727e-006 1.56892e-006 -3.15282e-006 
0.870328 34.5759 13.6767 0 31.8353 -0 0.356009 0.208107 -0.470412 0.713722 0.41333 -0.942118 0.713722 0.413325 -0.942118 -6.50319e-005 0.234089 7.52937e-005 1.84668e-007 0.219754 -1.00125e-006 -21.7987 29.9858 -5.04595 -82.0649 -51.0609 -56.4018 -93.6955 -0.833789 -14.692 156.688 34.4582 -129.166 -2.89915e-007 2.89886e-007 1.18503e-007 -4.34873e-007 4.34829e-007 1.77755e-007 -2.89915e-007 2.89886e-007 1.18503e-007 -2.89915e-007 2.89886e-007 1.18503e-007 -0.0145742 -9.08978e-005 7.23709e-007 2.57928e-007 5.87064e-007 8.15109e-008 -2.89915e-007 2.89886e-007 1.18503e-007 -0.0187342 -0.0011732 5.42565e-005 -2.89912e-007 2.89867e-007 1.18553e-007 -2.89915e-007 2.89886e-007 1.18503e-007 -0.0123267 -0.00326331 0.000681671 -2.89909e-007 2.89875e-007 1.18542e-007 -2.89915e-007 2.89886e-007 1.18503e-007 -4.34873e-007 4.34829e-007 1.77755e-007 -2.89915e-007 2.89886e-007 1.18503e-007 20.928 27.9741 5.25228 82.0501 -51.1696 56.4953 93.2445 -0.951721 14.8237 -161.203 36.2522 136.704 -2.89881e-007 -2.89889e-007 1.18567e-007 -5.79761e-007 -5.79778e-007 2.37134e-007 -4.34821e-007 -4.34834e-007 1.7785e-007 -2.89881e-007 -2.89889e-007 1.18567e-007 0.0149819 -9.02772e-005 4.94768e-007 -4.34819e-007 -4.3481e-007 1.77907e-007 -2.89881e-007 -2.89889e-007 1.18567e-007 0.0189792 -0.00118822 -5.34571e-005 -9.78963e-007 -1.36735e-007 2.13271e-007 -2.89881e-007 -2.89889e-007 1.18567e-007 0.012225 -0.00323901 -0.000680403 -4.34812e-007 -4.34818e-007 1.77909e-007 -2.89881e-007 -2.89889e-007 1.18567e-007 -5.79761e-007 -5.79778e-007 2.37134e-007 -4.34821e-007 -4.34834e-007 1.7785e-007 -142.746 -63.7298 -138.421 -167.448 77.8874 165.324 1.43025 -9.52704 -12.7566 -1.63207e-006 -4.35035e-007 -1.82666e-007 144.876 -64.2209 141.992 168.462 77.0072 -166.271 0.29792 -10.7716 14.0635 1.59028e-015 3.18055e-015 6.36111e-015 
0.87033 34.5635 14.2024 0 30.6723 -0 0.352895 0.496597 -0.474906 0.709934 0.990198 -0.952915 0.709933 0.990208 -0.952915 -0.000112052 0.298237 0.000126799 1.74238e-007 0.280397 3.00465e-007 -21.7987 29.9857 -5.04593 -82.0649 -51.0609 -56.4018 -93.2984 -0.941756 -14.7358 156.251 34.2794 -129.195 1.44872e-007 -1.45019e-007 -5.9254e-008 -2.89744e-007 2.90037e-007 1.18508e-007 1.44872e-007 -1.45019e-007 -5.9254e-008 1.44872e-007 -1.45019e-007 -5.9254e-008 -0.0145669 -9.06434e-005 7.399e-006 1.44871e-007 -1.45011e-007 -5.92726e-008 1.44872e-007 -1.45019e-007 -5.9254e-008 -0.0187805 -0.00117803 6.03742e-005 1.44871e-007 -1.45009e-007 -5.92793e-008 1.44872e-007 -1.45019e-007 -5.9254e-008 -0.012249 -0.00324108 0.000674336 1.44869e-007 -1.45013e-007 -5.92736e-008 1.44872e-007 -1.45019e-007 -5.9254e-008 -2.89744e-007 2.90037e-007 1.18508e-007 1.44872e-007 -1.45019e-007 -5.9254e-008 20.9279 27.974 5.25237 82.0501 -51.1696 56.4953 92.856 -1.05786 14.8654 -160.743 36.0763 136.708 -1.44849e-007 -1.45019e-007 5.93063e-008 -3.94189e-007 4.47913e-007 -3.27159e-008 7.24243e-007 7.25094e-007 -2.96532e-007 -1.44849e-007 -1.45019e-007 5.93063e-008 0.0150151 -9.16869e-005 -8.39428e-008 7.24239e-007 7.25055e-007 -2.96627e-007 -1.44849e-007 -1.45019e-007 5.93063e-008 0.0190276 -0.00119485 -6.20984e-005 7.24235e-007 7.25045e-007 -2.9666e-007 -1.44849e-007 -1.45019e-007 5.93063e-008 0.0122648 -0.00325156 -0.000684034 7.24228e-007 7.25067e-007 -2.9663e-007 -1.44849e-007 -1.45019e-007 5.93063e-008 -3.94189e-007 4.47913e-007 -3.27159e-008 7.24243e-007 7.25094e-007 -2.96532e-007 -139.296 -64.1545 -135.349 -167.429 77.9055 165.31 0.906997 -10.0911 -12.0039 8.16069e-007 2.1783e-007 8.90892e-008 141.351 -64.7286 138.844 168.445 77.0253 -166.26 0.807197 -11.358 13.3309 2.38542e-015 6.36111e-015 6.36111e-015 
